# xmcd
#
# Track frame offsets:
#	182
#	16147
#	32087
#	55742
#	67070
#	75155
#	98775
#	112265
#	131270
#	143395
#	161870
#	177582
#	198965
#
# Disc length: 2932 seconds
#
# Revision: 4
# Processed by: cddbd v1.4PL0 Copyright (c) Steve Scherf et al.
# Submitted via: MusicManager 7.0.3.0 
#
DISCID=a70b720d
DTITLE=Hancock, Wayne  - That's What Daddy Wants
DYEAR=1997
DGENRE=Other
TTITLE0=That's What Daddy Wants
TTITLE1=87 Southbound
TTITLE2=Johnson City
TTITLE3=Misery
TTITLE4=Little Lisa
TTITLE5=Knocked Out Rhythm
TTITLE6=Highway 54
TTITLE7=Johnny Law
TTITLE8=Freight Line Blues
TTITLE9=Lea Ann
TTITLE10=Life On The Road
TTITLE11=Louisiana Blues
TTITLE12=Brand New Cadillac
EXTD=\nURL: http://www.ark21.com/artists/wayne_hancock/index.htm "Wayne Hancock Index" YEAR: 1997
EXTT0=
EXTT1=
EXTT2=
EXTT3=
EXTT4=
EXTT5=
EXTT6=
EXTT7=
EXTT8=
EXTT9=
EXTT10=
EXTT11=
EXTT12=
PLAYORDER=
